HIERARCHY
ROOT root
{
	OFFSET 0.000000 0.000000 0.000000
	CHANNELS 6 Xposition Yposition Zposition Zrotation Yrotation Xrotation
	JOINT lhip
	{
		OFFSET 0.058581 -0.082280 -0.017664
		CHANNELS 3 Zrotation Yrotation Xrotation
		JOINT lknee
		{
			OFFSET 0.043451 -0.386469 0.008037
			CHANNELS 3 Zrotation Yrotation Xrotation
			JOINT lankle
			{
				OFFSET -0.014790 -0.426874 -0.037428
				CHANNELS 3 Zrotation Yrotation Xrotation
				JOINT ltoe
				{
					OFFSET 0.041054 -0.060286 0.122042
					CHANNELS 3 Zrotation Yrotation Xrotation
					End Site
					{
						OFFSET 0.000000 0.000000 0.000000
					}
				}
			}
		}
	}
	JOINT rhip
	{
		OFFSET -0.060310 -0.090513 -0.013543
		CHANNELS 3 Zrotation Yrotation Xrotation
		JOINT rknee
		{
			OFFSET -0.043257 -0.383688 -0.004843
			CHANNELS 3 Zrotation Yrotation Xrotation
			JOINT rankle
			{
				OFFSET 0.019056 -0.420046 -0.034562
				CHANNELS 3 Zrotation Yrotation Xrotation
				JOINT rtoe
				{
					OFFSET -0.034840 -0.062106 0.130323
					CHANNELS 3 Zrotation Yrotation Xrotation
					End Site
					{
						OFFSET 0.000000 0.000000 0.000000
					}
				}
			}
		}
	}
	JOINT lowerback
	{
		OFFSET 0.004439 0.124404 -0.038385
		CHANNELS 3 Zrotation Yrotation Xrotation
		JOINT upperback
		{
			OFFSET 0.004488 0.137956 0.026820
			CHANNELS 3 Zrotation Yrotation Xrotation
			JOINT chest
			{
				OFFSET -0.002265 0.056032 0.002855
				CHANNELS 3 Zrotation Yrotation Xrotation
				JOINT lowerneck
				{
					OFFSET -0.013390 0.211636 -0.033468
					CHANNELS 3 Zrotation Yrotation Xrotation
					JOINT upperneck
					{
						OFFSET 0.010113 0.088937 0.050410
						CHANNELS 3 Zrotation Yrotation Xrotation
						End Site
						{
							OFFSET 0.000000 0.000000 0.000000
						}
					}
				}
				JOINT lclavicle
				{
					OFFSET 0.071702 0.114000 -0.018898
					CHANNELS 3 Zrotation Yrotation Xrotation
					JOINT lshoulder
					{
						OFFSET 0.122921 0.045205 -0.019046
						CHANNELS 3 Zrotation Yrotation Xrotation
						JOINT lelbow
						{
							OFFSET 0.255332 -0.015649 -0.022946
							CHANNELS 3 Zrotation Yrotation Xrotation
							JOINT lwrist
							{
								OFFSET 0.265709 0.012698 -0.007375
								CHANNELS 3 Zrotation Yrotation Xrotation
								End Site
								{
									OFFSET 0.000000 0.000000 0.000000
								}
							}
						}
					}
				}
				JOINT rclavicle
				{
					OFFSET -0.082954 0.112472 -0.023707
					CHANNELS 3 Zrotation Yrotation Xrotation
					JOINT rshoulder
					{
						OFFSET -0.113228 0.046853 -0.008472
						CHANNELS 3 Zrotation Yrotation Xrotation
						JOINT relbow
						{
							OFFSET -0.260127 -0.014369 -0.031269
							CHANNELS 3 Zrotation Yrotation Xrotation
							JOINT rwrist
							{
								OFFSET -0.269108 0.006794 -0.006027
								CHANNELS 3 Zrotation Yrotation Xrotation
								End Site
								{
									OFFSET 0.000000 0.000000 0.000000
								}
							}
						}
					}
				}
			}
		}
	}
}
MOTION
Frames: 10
Frame Time: 0.033333
-0.062369 0.270677 0.775167 -2.937615 -1.329436 70.871529 21.553502 8.820660 -11.666282 -7.341613 9.450523 64.777179 -2.481657 18.557600 -45.434226 0.000000 -0.000000 0.000000 -24.254745 -10.430159 -26.694011 0.641838 -2.613511 77.086764 4.482414 4.926847 -31.676722 0.000000 -0.000000 0.000000 -3.142134 4.873373 31.600613 2.059613 -2.995190 4.598262 1.565999 -1.511872 -4.436749 8.076482 8.322339 -12.775371 -2.242041 -10.738930 20.123864 -25.498126 -30.279246 -8.891158 -17.479036 -26.489274 -9.736458 88.527019 -68.671405 -64.714629 -33.935127 -0.597614 17.148495 27.352828 29.772754 -6.059512 26.177787 28.031236 1.205312 -88.304912 63.171225 -76.055473 3.813367 4.589784 0.666164 
-0.062418 0.270382 0.775238 -2.904743 -1.388483 70.815207 21.551828 8.665474 -11.514189 -7.368409 9.607193 64.681430 -2.530067 18.455870 -45.447940 0.000000 -0.000000 0.000000 -24.347116 -10.318257 -26.608239 0.043558 -2.719806 77.164297 4.375155 5.469419 -31.690285 0.000000 -0.000000 0.000000 -3.186433 5.008210 31.591591 2.159185 -3.042030 4.729306 1.583242 -1.532651 -4.424293 8.144266 8.414737 -12.798740 -2.195056 -10.843146 20.036384 -25.630514 -30.370951 -8.997255 -17.562529 -26.224124 -9.321329 88.486236 -68.497117 -65.087953 -34.301263 0.079336 17.802502 27.191865 29.881111 -6.256878 26.404052 27.737708 1.287532 -87.840610 63.168108 -75.533808 4.691000 4.554711 0.611513 
-0.062371 0.270136 0.775396 -2.829223 -1.384700 70.775204 21.520562 8.613884 -11.466492 -7.397898 9.559949 64.632464 -2.544897 18.490508 -45.441400 0.000000 -0.000000 0.000000 -24.328846 -10.225785 -26.482367 -0.047284 -2.726061 77.116144 4.343751 5.370609 -31.742608 0.000000 -0.000000 0.000000 -3.138374 4.964815 31.722659 2.132702 -3.057758 4.625286 1.565120 -1.474356 -4.437729 8.193183 8.264805 -12.693933 -2.067128 -10.919083 19.957613 -25.747157 -30.289066 -8.965886 -17.661708 -26.131054 -9.192095 87.893458 -68.625751 -64.531393 -34.434087 -0.079349 17.535454 27.194922 29.847208 -6.350269 26.490869 27.509159 1.342991 -87.336863 63.338673 -75.068303 4.745274 4.705805 0.413029 
-0.062319 0.269815 0.775440 -2.629058 -1.367916 70.785307 21.449463 8.468948 -11.535352 -7.347042 9.567402 64.650643 -2.547627 18.512614 -45.449297 0.000000 -0.000000 0.000000 -24.343196 -10.205691 -26.391193 -0.100432 -2.737171 77.124484 4.376295 5.248736 -31.797709 0.000000 -0.000000 0.000000 -3.121177 4.964279 31.654106 2.194158 -3.080582 4.676371 1.547533 -1.508554 -4.382072 8.244101 8.031430 -12.558327 -2.022960 -10.914812 19.715877 -25.839611 -30.183477 -8.923375 -17.681131 -26.118656 -9.010048 86.705018 -68.780078 -63.569827 -34.524454 -0.364723 17.678636 27.156208 29.739050 -6.411354 26.429448 27.321904 1.486189 -87.179911 63.376179 -74.960964 5.104270 4.661739 0.553055 
-0.062260 0.269434 0.775296 -2.662604 -1.372527 70.737002 21.469957 8.567163 -11.447428 -7.389881 9.481993 64.669998 -2.521920 18.437316 -45.512122 0.000000 -0.000000 0.000000 -24.284141 -10.169570 -26.360086 -0.135286 -2.624652 77.148247 4.427234 5.213742 -31.830971 0.000000 -0.000000 0.000000 -3.085264 4.951197 31.527679 2.167871 -3.022038 4.913353 1.520501 -1.486060 -4.388558 8.219186 7.895661 -12.589546 -2.005888 -10.859216 19.697866 -25.748804 -30.151157 -9.024897 -17.890830 -26.051195 -8.880422 86.477478 -68.799344 -63.064903 -34.325245 -0.060916 17.558895 27.095436 29.764108 -6.452546 26.323727 27.268476 1.444910 -86.753892 63.449771 -74.520785 5.197682 4.745826 0.446425 
-0.062136 0.269759 0.775401 -2.454765 -1.341249 70.835291 21.304471 8.504294 -11.690109 -7.389154 9.282790 64.625341 -2.483295 18.486630 -45.576922 0.000000 -0.000000 0.000000 -24.288536 -10.201034 -26.359774 -0.153795 -2.662838 77.092135 4.462831 5.110615 -31.812793 0.000000 -0.000000 0.000000 -3.090726 4.823775 31.584515 2.174960 -3.043803 4.687042 1.560693 -1.501199 -4.247761 8.123266 7.879210 -12.248791 -1.865299 -10.555655 19.278835 -25.893557 -30.033052 -9.026246 -17.877918 -26.050766 -8.737539 86.125445 -68.912846 -62.673339 -34.250680 0.115247 17.642119 27.163776 29.669754 -6.403998 26.043965 27.312923 1.428119 -86.365690 63.692621 -74.409222 4.940510 4.763982 0.195089 
-0.062151 0.269217 0.775347 -2.456259 -1.312113 70.788544 21.380081 8.673151 -11.635367 -7.378494 9.203030 64.708426 -2.456483 18.438845 -45.479911 0.000000 -0.000000 0.000000 -24.229650 -10.223130 -26.271654 -0.216432 -2.586498 77.090270 4.409482 5.081533 -31.835633 0.000000 -0.000000 0.000000 -2.987849 4.817639 31.423592 2.124470 -3.025388 4.877185 1.512627 -1.479985 -4.139595 8.077236 7.896065 -12.255675 -1.940568 -10.548624 19.465131 -25.797281 -30.057384 -9.058084 -18.084301 -25.918260 -8.698842 86.076081 -68.936428 -62.455626 -34.660989 0.299934 17.534282 26.999650 29.700473 -6.370993 25.982295 27.247190 1.239512 -86.384755 63.804287 -74.362799 5.057486 4.784254 0.013543 
-0.062021 0.269251 0.775337 -2.426783 -1.375819 70.799750 21.301477 8.641097 -11.699208 -7.299066 9.325320 64.807816 -2.497462 18.362335 -45.379026 0.000000 -0.000000 0.000000 -24.245146 -10.250091 -26.338446 -0.211844 -2.474325 77.113959 4.449763 5.036976 -31.805052 0.000000 -0.000000 0.000000 -2.965143 4.862156 31.407385 2.100316 -2.988621 4.914495 1.485984 -1.511725 -4.155445 7.944792 7.901020 -12.232660 -2.085773 -10.418018 19.671775 -25.835535 -30.019688 -9.000625 -18.192018 -25.904969 -8.659745 85.644584 -68.898751 -62.080509 -35.159814 0.195164 17.448733 26.902658 29.670784 -6.416962 26.040301 27.201921 1.370317 -86.573369 63.739851 -74.512704 5.465189 4.773636 -0.179268 
-0.061949 0.269458 0.775423 -2.345900 -1.376459 70.784815 21.256251 8.605513 -11.683681 -7.327530 9.254612 64.708279 -2.375401 18.395604 -45.472985 0.000000 -0.000000 0.000000 -24.253028 -10.170115 -26.310268 -0.179858 -2.475915 77.126424 4.418116 4.920853 -31.825989 0.000000 -0.000000 0.000000 -2.924095 4.785029 31.506892 2.045909 -2.967343 4.822560 1.451528 -1.516901 -4.161743 7.849880 7.952030 -12.118689 -2.157337 -10.162866 19.934103 -25.892587 -29.987229 -9.027927 -18.280988 -25.861447 -8.638518 85.457177 -68.941037 -62.024187 -35.598043 0.228256 17.542824 26.850024 29.700226 -6.461045 26.181760 27.115071 1.509624 -86.817815 63.612760 -74.861144 6.126091 4.593443 -0.095955 
-0.061942 0.269501 0.775438 -2.294814 -1.337298 70.772166 21.235111 8.761162 -11.793061 -7.205029 9.130314 64.869198 -2.465447 18.246340 -45.432789 0.000000 -0.000000 0.000000 -24.174546 -10.222607 -26.272386 -0.257907 -2.422597 77.094963 4.463654 4.954300 -31.848085 0.000000 -0.000000 0.000000 -2.837931 4.779101 31.534794 2.018565 -2.950403 4.827355 1.401743 -1.505825 -4.192611 7.745056 8.027506 -12.041013 -2.311545 -10.200076 20.230152 -25.894670 -29.972340 -8.915092 -18.289077 -25.922272 -8.837629 85.132074 -69.050938 -61.465010 -35.767609 0.228013 17.573161 26.850007 29.661266 -6.436957 26.140381 27.162002 1.377431 -86.602133 63.669976 -74.540123 5.425994 4.770326 -0.302303 
